<?xml version="1.0" encoding="utf-8"?>
<!-- Generator: Adobe Illustrator 25.2.0, SVG Export Plug-In . SVG Version: 6.00 Build 0)  -->
<svg version="1.1" id="Layer_1" xmlns="http://www.w3.org/2000/svg" xmlns:xlink="http://www.w3.org/1999/xlink" x="0px" y="0px"
	 viewBox="0 0 49.1 41.6" enable-background="new 0 0 49.1 41.6" xml:space="preserve">
<g>
	<path id="quote-right" vector-effect="non-scaling-stroke" xmlns:default="http://www.w3.org/2000/svg" fill="#FFFFFF" d="
		M26.5,35.9c0,3.1,2.5,5.7,5.7,5.7h11.3c3.1,0,5.7-2.6,5.7-5.7V24.6c0-3.1-2.5-5.7-5.7-5.7h-6.6c-1.6,0-2.8-1.3-2.8-2.8v-0.9
		c0-4.2,3.4-7.5,7.6-7.5h1.9c1,0,1.9-0.8,1.9-1.9V2c0-1-0.9-1.9-1.9-1.9h-2c-2,0-4,0.4-5.9,1.2c-3.6,1.5-6.5,4.4-8,8
		c-0.8,1.8-1.2,3.9-1.2,5.9L26.5,35.9L26.5,35.9z M0,35.9c0,3.1,2.5,5.7,5.7,5.7H17c3.1,0,5.7-2.6,5.7-5.7V24.6
		c0-3.1-2.5-5.7-5.7-5.7h-6.6c-1.6,0-2.8-1.3-2.8-2.8v-0.9c0-4.2,3.4-7.6,7.6-7.6h1.9c1,0,1.9-0.8,1.9-1.9V1.9c0-1-0.9-1.9-1.9-1.9
		h-1.9c-2,0-4,0.4-5.9,1.2c-3.6,1.5-6.5,4.4-8,8c-0.8,1.9-1.2,3.9-1.2,5.9L0,35.9L0,35.9z"/>
</g>
</svg>
