<?xml version="1.0" encoding="utf-8"?>
<!-- Generator: Adobe Illustrator 25.2.0, SVG Export Plug-In . SVG Version: 6.00 Build 0)  -->
<svg version="1.1" id="Layer_1" xmlns="http://www.w3.org/2000/svg" xmlns:xlink="http://www.w3.org/1999/xlink" x="0px" y="0px"
	 viewBox="0 0 49.1 41.6" enable-background="new 0 0 49.1 41.6" xml:space="preserve">
<g transform="translate(0, 0)">
	<g transform="translate(0, -0.000009999999999621423) rotate(0)">
		<path vector-effect="non-scaling-stroke" fill="#FFFFFF" d="M22.7,35.9c0,3.1-2.5,5.7-5.7,5.7H5.7C2.5,41.6,0,39,0,35.9V24.6
			c0-3.1,2.5-5.7,5.7-5.7h6.6c1.6,0,2.8-1.3,2.8-2.8v-0.9c0-4.2-3.4-7.5-7.6-7.5H5.7c-1,0-1.9-0.8-1.9-1.9V1.9c0-1,0.9-1.9,1.9-1.9
			h1.9c2,0,4,0.4,5.9,1.2c3.6,1.5,6.5,4.4,8,8c0.8,1.8,1.2,3.9,1.2,5.9C22.7,15.1,22.7,35.9,22.7,35.9z M49.1,35.9
			c0,3.1-2.5,5.7-5.7,5.7H32.1c-3.1,0-5.7-2.5-5.7-5.7V24.6c0-3.1,2.5-5.7,5.7-5.7h6.6c1.6,0,2.8-1.3,2.8-2.8v-0.9
			c0-4.2-3.4-7.6-7.6-7.6h-1.9c-1,0-1.9-0.8-1.9-1.9V1.9c0-1,0.9-1.9,1.9-1.9H34c2,0,4,0.4,5.9,1.2c3.6,1.5,6.5,4.4,8,8
			c0.8,1.9,1.2,3.9,1.2,5.9C49.1,15.1,49.1,35.9,49.1,35.9z"/>
	</g>
</g>
</svg>
